<svg xmlns="http://www.w3.org/2000/svg" viewBox="0 0 500 500">
  <path fill="#042a3f" fill-rule="evenodd" d="M250 0c-333.4 5.6-333.3 494.4 0 500 333.3-5.6 333.3-494.4 0-500"/>
  <path fill="#ff1547" d="m322.5 193.7-17.4 5.6L174.3 151c-13.5-5-28.3 9.8-23.3 23.3l48.3 130.8-5.6 17.5c-1 3.2-5.5 3.8-6.6.8l-66.1-179c-5-13.6 9.8-28.4 23.3-23.4l179.1 66c3 1.2 2.4 5.7-.9 6.7"/>
  <path fill="#06ffe1" d="m394 351-43 43c-1.1 1.2-3 1.3-4 .3l-25-25c1.1 1 2.9 1 4-.3l43-43c1.2-1.1 1.3-3 .3-4l25 25c1 1 1 2.9-.2 4m-166.2-11.3 14.3 38.7c1 3 5.5 2.4 6.6-.8l19.8-61.9-25-25zm150.6-97.6-38.7-14.3-49 15.7 25 25 61.8-19.8c3.3-1 3.9-5.5.9-6.6"/>
  <path fill="#fff" d="m369 326-43 43a3 3 0 0 1-4 .3l-53.5-53.6-25-25-15.7 49-4.1 12.9c-1 3.2-5.5 3.8-6.6.8l-17.8-48.3L151 174.3c-5-13.5 9.8-28.3 23.3-23.3l130.8 48.3 48.3 17.8c3 1 2.4 5.5-.9 6.6l-12.8 4.1-49 15.7 78.6 78.5c1 1 1 2.9-.2 4"/>
</svg>
