<svg xmlns="http://www.w3.org/2000/svg" viewBox="0 0 1500 400">
  <path fill="#020e14" d="m895.6 122.4-81.7 271h-79.2l-53.9-196.3-57.4 196.3h-79.2l-77.7-271h75.3l44.9 190.9 51.8-190.9H723l52 190 44.6-190zm274.1 154H966.4c2 62.6 89 85.6 118.7 30.7h78c-30.2 112-200.4 124.6-254.4 26-67.7-134.3 59.6-267.6 196-199.8 51.4 27.6 72.7 86.3 65 143.2m-76.4-45.8c-4.7-72.5-115.3-68.4-125.2 0zM297.3 11h76.5l-2 382.5H230.6l-22-85.8H90.9l-26 85.8H0L114.6 10.9H185l111 382.4zM192 248 149.7 97.4 107.6 248zm1175 152c-36.8.1-65.5-13-86.4-41.6l-2 35h-76.4L1204 0h76.4v159.5c49.6-71.3 165.2-49.9 201.7 25.7 48.6 88.3-6.3 217.4-115.2 214.8m-18-217.5c-59-2-87.6 66-61.3 114.2 24.3 48.7 100.8 48.4 125.2 0 26.6-48.5-4.7-116.2-63.8-114.2"/>
</svg>
