<svg xmlns="http://www.w3.org/2000/svg" viewBox="0 0 2000 1240">
  <path fill="#020e14" d="m1194.2 869.9-109 361.3H979.7l-72-261.8-76.5 261.8H725.6L622 870h100.5l59.7 254.5L851.3 870h112.8l69.4 253.3L1093 870zm365.4 205.4h-271.1c2.8 83.4 118.6 114 158.3 40.8h104c-40.2 149.4-267.2 166.1-339.2 34.6-90.3-179 79.5-356.7 261.4-266.3 68.5 36.8 96.9 115 86.6 190.9m-102-61.2c-6.2-96.7-153.7-91.2-166.8 0zM396.5 721.2h102l-2.7 510H307.4l-29.3-114.4H121.2l-34.6 114.4H0l152.8-510h93.7L394.7 1231zM256 1037.4l-56.2-200.9-56.2 200.9zm1566.7 202.5c-49.2.2-87.4-17.3-115.2-55.3l-2.7 46.6h-102l2.7-524.5h102v212.7c66-95.1 220.1-66.6 268.8 34.3 64.9 117.7-8.3 289.8-153.6 286.3m-24-290c-78.8-2.5-117 88-81.8 152.4 32.3 64.9 134.4 64.5 167 0 35.4-64.8-6.4-155-85.2-152.3"/>
  <path fill="#042a3f" fill-rule="evenodd" d="M1000 0c-444.5 7.5-444.4 659.2 0 666.7 444.5-7.5 444.4-659.3 0-666.7"/>
  <path fill="#ff1547" d="m1096.7 258.3-23.2 7.4-174.4-64.4c-18-6.6-37.8 13.1-31.1 31.1L932.3 407l-7.3 23c-1.4 4.3-7.3 5.1-8.8 1.1L828 192.4c-6.7-18 13-37.7 31-31l238.9 88c4 1.5 3.2 7.5-1.2 8.9"/>
  <path fill="#06ffe1" d="m1192 468-57.3 57.4c-1.6 1.6-4 1.7-5.3.3l-33.3-33.3c1.4 1.4 3.7 1.2 5.3-.3l57.3-57.4c1.6-1.5 1.7-4 .4-5.3l33.3 33.3c1.4 1.4 1.2 3.8-.3 5.3m-221.6-15 19 51.5c1.5 4 7.4 3.3 8.8-1l26.4-82.5-33.3-33.4zm200.8-130.2-51.6-19-65.3 20.9 33.4 33.3 82.4-26.4c4.3-1.4 5-7.3 1.1-8.8"/>
  <path fill="#fff" d="m1158.7 434.7-57.3 57.4c-1.6 1.5-4 1.7-5.3.3l-71.4-71.4-33.4-33.4-21 65.4-5.4 17c-1.4 4.4-7.3 5.2-8.8 1.2l-23.7-64.4L868 232.4c-6.7-18 13-37.7 31-31l174.5 64.3 64.4 23.7c4 1.5 3.2 7.5-1.2 8.9l-17 5.4-65.4 21 104.8 104.7c1.3 1.4 1.2 3.7-.4 5.3"/>
</svg>
