<svg xmlns="http://www.w3.org/2000/svg" viewBox="0 0 2120 500">
  <path fill="#042a3f" d="m1515.6 172.4-81.7 271h-79.2L1300.9 247l-57.4 196.3h-79.2l-77.7-271h75.3l44.9 190.9 51.8-191h84.6l52 190 44.6-190zm274.1 154h-203.3c2 62.6 89 85.6 118.7 30.7h78c-30.1 112-200.4 124.5-254.4 26-67.7-134.3 59.6-267.6 196-199.8 51.4 27.6 72.7 86.3 65 143.2m-76.4-45.8c-4.7-72.5-115.3-68.5-125.2 0zM917.3 61h76.5l-2 382.5H850.6l-22-85.8H710.9l-26 85.8H620L734.6 60.9H805l111 382.4zM812 298l-42.2-150.6L727.6 298zm1175 152c-36.8 0-65.5-13-86.4-41.6l-2 35h-76.4l2-393.4h76.4v159.5c49.6-71.3 165.2-50 201.7 25.7 48.6 88.3-6.3 217.4-115.2 214.7m-18-217.5c-59-2-87.6 66-61.3 114.2 24.3 48.7 100.8 48.4 125.2 0 26.6-48.6-4.7-116.2-63.8-114.2"/>
  <path fill="#042a3f" fill-rule="evenodd" d="M250 0c-333.4 5.6-333.3 494.4 0 500 333.3-5.6 333.3-494.4 0-500"/>
  <path fill="#fff" d="m369 326-43 43a3 3 0 0 1-4 .3l-53.5-53.6-25-25-15.7 49-4.1 12.9c-1 3.2-5.5 3.8-6.6.8l-17.8-48.3L151 174.3c-5-13.5 9.8-28.3 23.3-23.3l130.8 48.3 48.3 17.8c3 1 2.4 5.5-.9 6.6l-12.8 4.1-49 15.7 78.6 78.5c1 1 1 2.9-.2 4"/>
</svg>
